HIERARCHY
ROOT Hips
{
  OFFSET 52.7302 85.9696 49.9351
  CHANNELS 6 Xposition Yposition Zposition Zrotation Xrotation Yrotation
  JOINT spine
  {
    OFFSET 0 6.3926 0.367606
    CHANNELS 3 Zrotation Xrotation Yrotation
    JOINT spine1
    {
      OFFSET 0 9.17611 0
      CHANNELS 3 Zrotation Xrotation Yrotation
      JOINT spine2
      {
        OFFSET 0 8.79238 0
        CHANNELS 3 Zrotation Xrotation Yrotation
        JOINT Neck
        {
          OFFSET 0 22.5737 1.07624
          CHANNELS 3 Zrotation Xrotation Yrotation
          JOINT Head
          {
            OFFSET 0 6.82011 0
            CHANNELS 3 Zrotation Xrotation Yrotation
            End Site
            {
              OFFSET 0 16.5085 -5.44427
            }
          }
        }
        JOINT RightShoulder
        {
          OFFSET -3.70221 9.49509 -0.515508
          CHANNELS 3 Zrotation Xrotation Yrotation
          JOINT RightArm
          {
            OFFSET 0 12.4537 0
            CHANNELS 3 Zrotation Xrotation Yrotation
            JOINT RightArmRoll
            {
              OFFSET 0 6.28686 0
              CHANNELS 3 Zrotation Xrotation Yrotation
              JOINT RightForeArm
              {
                OFFSET 0 18.3114 0
                CHANNELS 3 Zrotation Xrotation Yrotation
                JOINT RightForeArmRoll
                {
                  OFFSET 0 7.05482 0
                  CHANNELS 3 Zrotation Xrotation Yrotation
                  JOINT RightHand
                  {
                    OFFSET 0 14.1575 0
                    CHANNELS 3 Zrotation Xrotation Yrotation
                    End Site
                    {
                      OFFSET 0 0 0
                    }
                  }
                }
              }
            }
          }
        }
        JOINT LeftShoulder
        {
          OFFSET 3.70221 9.49509 -0.515508
          CHANNELS 3 Zrotation Xrotation Yrotation
          JOINT LeftArm
          {
            OFFSET 0 12.4537 0
            CHANNELS 3 Zrotation Xrotation Yrotation
            JOINT LeftArmRoll
            {
              OFFSET 0 6.28686 0
              CHANNELS 3 Zrotation Xrotation Yrotation
              JOINT LeftForeArm
              {
                OFFSET 0 18.3114 0
                CHANNELS 3 Zrotation Xrotation Yrotation
                JOINT LeftForeArmRoll
                {
                  OFFSET 0 7.05482 0
                  CHANNELS 3 Zrotation Xrotation Yrotation
                  JOINT LeftHand
                  {
                    OFFSET 0 14.1575 0
                    CHANNELS 3 Zrotation Xrotation Yrotation
                    End Site
                    {
                      OFFSET 0 0 0
                    }
                  }
                }
              }
            }
          }
        }
      }
    }
  }
  JOINT RightUpLeg
  {
    OFFSET -5.66616 -1.03903 -0.87161
    CHANNELS 3 Zrotation Xrotation Yrotation
    JOINT RightUpLegRoll
    {
      OFFSET 0 16.6005 0
      CHANNELS 3 Zrotation Xrotation Yrotation
      JOINT RightLeg
      {
        OFFSET 0 -20.5572 0
        CHANNELS 3 Zrotation Xrotation Yrotation
        JOINT RightLegRoll
        {
          OFFSET 0 20.6244 0
          CHANNELS 3 Zrotation Xrotation Yrotation
          JOINT RightFoot
          {
            OFFSET 0 17.1664 0
            CHANNELS 3 Zrotation Xrotation Yrotation
            JOINT RightToeBase
            {
              OFFSET 0 14.3502 0
              CHANNELS 3 Zrotation Xrotation Yrotation
              End Site
              {
                OFFSET 0.00608252 6.94971 -0.80106
              }
            }
          }
        }
      }
    }
  }
  JOINT LeftUpLeg
  {
    OFFSET 5.66616 -1.03903 -0.87161
    CHANNELS 3 Zrotation Xrotation Yrotation
    JOINT LeftUpLegRoll
    {
      OFFSET 0 16.6006 0
      CHANNELS 3 Zrotation Xrotation Yrotation
      JOINT LeftLeg
      {
        OFFSET 0 20.5571 0
        CHANNELS 3 Zrotation Xrotation Yrotation
        JOINT LeftLegRoll
        {
          OFFSET 0 20.8151 0
          CHANNELS 3 Zrotation Xrotation Yrotation
          JOINT LeftFoot
          {
            OFFSET 0 16.9757 0
            CHANNELS 3 Zrotation Xrotation Yrotation
            JOINT LeftToeBase
            {
              OFFSET 0 14.3502 0
              CHANNELS 3 Zrotation Xrotation Yrotation
              End Site
              {
                OFFSET -0.0272592 6.94971 -0.801061
              }
            }
          }
        }
      }
    }
  }
}
MOTION
Frames: 5
Frame Time: 0.00208333
52.9062 81.0493 37.9038 0.955677 13.8129 6.70607 -0.722385 -0.906255 -0.267896 -1.44308 2.19283 -0.455988 -1.43903 3.83758 -0.432123 1.82758 -6.65564 -0.851899 0.61163 1.36754 -0.528551 58.9708 1.12084 0.702072 111.915 25.0521 -14.312 -2.16652e-005 -2.02111e-006 6.56264e-006 19.6596 19.5751 -3.19447 1.54471e-006 -3.15942e-006 -3 8.02893 -4.95115 0.697513 -53.3517 -0.0420396 -0.702775 -116.682 27.3972 17.3919 -9.49341e-006 -3.54881e-006 -4.21517e-007 -16.2209 17.4857 3.11688 3.00002e-006 2.81312e-006 3 -8.02887 -4.95088 -0.697423 171.881 40.1392 4.15834 -180 1.52575e-005 179.252 176.315 37.5531 179.855 1.84783e-006 -3.52178e-006 0.595531 -23.7382 73.2716 25.2456 8.15192 25.4591 -3.17628 -178.866 40.0083 4.05769 4.54188e-006 -4.6773e-006 -0.801501 -0.112706 -35.0776 0.83904 -4.95922e-006 -7.80177e-006 -0.757941 22.4099 72.0785 -23.6723 -8.13803 25.2555 3.45032 
52.8989 81.1092 37.9882 0.965316 13.7164 6.71578 -0.722528 -0.919627 -0.268556 -1.44463 2.1661 -0.457639 -1.44054 3.81085 -0.433748 1.81315 -6.53066 -0.847508 0.593877 1.37893 -0.525746 58.9894 1.0763 0.672247 111.848 24.9775 -14.2784 -2.16652e-005 -2.02111e-006 6.56264e-006 19.6855 19.5558 -3.19056 1.54471e-006 -3.15942e-006 -3 8.02893 -4.95115 0.697513 -53.3931 -0.0699868 -0.67812 -116.564 27.2893 17.283 -9.49341e-006 -3.54881e-006 -4.21517e-007 -16.2364 17.505 3.1222 3.00002e-006 2.81312e-006 3 -8.02887 -4.95088 -0.697423 171.921 39.871 4.09408 -180 1.52575e-005 179.25 176.35 37.353 179.842 1.84783e-006 -3.52178e-006 0.593283 -23.6742 73.2231 25.1766 8.15257 25.4688 -3.16302 -178.878 39.7208 4.08087 4.54188e-006 -4.6773e-006 -0.802082 -0.0975716 -34.8415 0.841209 -4.95922e-006 -7.80177e-006 -0.750786 22.3538 72.0308 -23.6128 -8.13812 25.2568 3.44705 
52.9159 81.1663 38.0647 0.974836 13.6207 6.72497 -0.722759 -0.932987 -0.269133 -1.44618 2.13939 -0.459101 -1.44207 3.78414 -0.435182 1.79785 -6.4056 -0.844075 0.578003 1.38923 -0.523933 59.009 1.03045 0.641498 111.782 24.9039 -14.2432 -2.16652e-005 -2.02111e-006 6.56264e-006 19.7098 19.5362 -3.18662 1.54471e-006 -3.15942e-006 -3 8.02893 -4.95115 0.697513 -53.4349 -0.0983753 -0.653145 -116.447 27.1816 17.1732 -9.49341e-006 -3.54881e-006 -4.21517e-007 -16.2507 17.5234 3.12722 3.00002e-006 2.81312e-006 3 -8.02887 -4.95088 -0.697423 171.961 39.6032 4.03296 -180 1.52575e-005 179.249 176.381 37.1514 179.829 1.84783e-006 -3.52178e-006 0.590843 -23.6102 73.1745 25.1079 8.15318 25.478 -3.15041 -178.89 39.4343 4.10392 4.54188e-006 -4.6773e-006 -0.802666 -0.0821356 -34.6055 0.843407 -4.95922e-006 -7.80177e-006 -0.743685 22.2987 71.9837 -23.5542 -8.13821 25.2581 3.44409 
52.9206 81.2204 38.1517 0.984208 13.5259 6.73362 -0.723102 -0.946352 -0.26959 -1.44774 2.11267 -0.460288 -1.4436 3.75742 -0.436342 1.78155 -6.28029 -0.841954 0.564453 1.39788 -0.523454 59.0298 0.982873 0.609533 111.718 24.8318 -14.2058 -2.16652e-005 -2.02111e-006 6.56264e-006 19.7322 19.5153 -3.18244 1.54471e-006 -3.15942e-006 -3 8.02893 -4.95115 0.697513 -53.4775 -0.127067 -0.627899 -116.33 27.0743 17.0624 -9.49341e-006 -3.54881e-006 -4.21517e-007 -16.2639 17.5402 3.13186 3.00002e-006 2.81312e-006 3 -8.02887 -4.95088 -0.697423 171.998 39.3358 3.97539 -180 1.52575e-005 179.248 176.408 36.948 179.818 1.84783e-006 -3.52178e-006 0.588178 -23.5467 73.1261 25.0397 8.15375 25.4865 -3.13863 -178.901 39.1489 4.12685 4.54188e-006 -4.6773e-006 -0.803255 -0.0663606 -34.37 0.845642 -4.95922e-006 -7.80177e-006 -0.73666 22.2449 71.9373 -23.497 -8.13828 25.2593 3.4415 
52.9296 81.2834 38.2274 0.993403 13.4318 6.74172 -0.723579 -0.959743 -0.269885 -1.4493 2.0859 -0.461114 -1.44514 3.73065 -0.43714 1.76415 -6.1545 -0.841499 0.55367 1.40428 -0.524648 59.0523 0.933197 0.57606 111.655 24.7616 -14.1653 -2.16652e-005 -2.02111e-006 6.56264e-006 19.7521 19.4917 -3.17782 1.54471e-006 -3.15942e-006 -3 8.02893 -4.95115 0.697513 -53.5212 -0.155923 -0.602432 -116.213 26.9676 16.9504 -9.49341e-006 -3.54881e-006 -4.21517e-007 -16.2762 17.5549 3.13602 3.00002e-006 2.81312e-006 3 -8.02887 -4.95088 -0.697423 172.033 39.0686 3.92181 -180 1.52575e-005 179.246 176.431 36.7428 179.808 1.84783e-006 -3.52178e-006 0.585254 -23.4838 73.078 24.9725 8.15427 25.4944 -3.12784 -178.912 38.8645 4.14967 4.54188e-006 -4.6773e-006 -0.803855 -0.0502092 -34.135 0.847923 -4.95922e-006 -7.80177e-006 -0.729735 22.1927 71.8919 -23.4413 -8.13835 25.2603 3.43937 
